<svg xmlns="http://www.w3.org/2000/svg" xmlns:xlink="http://www.w3.org/1999/xlink" version="1.1" x="0px" y="0px" viewBox="0 0 100 125" enable-background="new 0 0 100 100" xml:space="preserve"><path fill="#000000" d="M41.564,46.786c0,4.334,3.514,7.849,7.85,7.849c4.334,0,7.847-3.515,7.847-7.849s-3.513-7.848-7.847-7.848  C45.079,38.938,41.564,42.452,41.564,46.786z M67.859,50.928c-0.105-1.525-1.43-2.675-2.955-2.569  c-1.525,0.107-2.676,1.43-2.568,2.956c0.108,1.526,1.432,2.674,2.955,2.568C66.814,53.775,67.965,52.453,67.859,50.928z   M17.469,50.928c-0.107,1.525,1.043,2.848,2.568,2.955c1.524,0.105,2.848-1.043,2.955-2.568c0.104-1.524-1.046-2.848-2.568-2.956  C18.898,48.253,17.577,49.402,17.469,50.928z M81.357,50.928c-0.107-1.525-1.43-2.675-2.955-2.569  c-1.525,0.107-2.676,1.43-2.568,2.956c0.105,1.525,1.432,2.674,2.953,2.568C80.312,53.775,81.463,52.453,81.357,50.928z   M30.966,50.928c-0.107,1.525,1.043,2.848,2.568,2.955c1.524,0.105,2.848-1.043,2.952-2.568c0.106-1.524-1.043-2.848-2.567-2.956  C32.395,48.253,31.075,49.402,30.966,50.928z M49.996,56.641v4.275c0,0.781-1.172,0.781-1.172,0v-4.275  c-3.772-0.223-6.975-2.562-8.436-5.848c-0.162-0.308-0.457-0.662-0.973-0.734l-0.058-0.006c-0.51-0.035-0.998,0.292-1,0.667v9.582  c0,0.895-1.344,0.895-1.344,0v-5.521c-0.007-0.113-0.078-0.223-0.188-0.27c-0.105-0.041-0.22-0.021-0.302,0.043  c-0.842,0.686-1.938,1.064-3.106,0.982c-2.438-0.174-4.277-2.287-4.107-4.729c0.043-0.63,0.219-1.223,0.494-1.749l-6.053-0.626  c0.631,0.826,0.975,1.876,0.896,2.994c-0.172,2.438-2.287,4.278-4.728,4.108c-2.438-0.173-4.278-2.287-4.108-4.728  c0.086-1.225,0.66-2.295,1.521-3.041l-7.877-0.816C4.188,46.331,3.501,45.4,2.438,43.17l-1.312-2.81c0,0-0.054-0.112-0.054-0.217  c0-0.278,0.229-0.505,0.511-0.505c0.188,0,0.358,0.075,0.446,0.247l1.593,3.396c0.5,0.876,1.397,1.36,2.162,1.432l33.186,1.119  c0.393-0.036,0.637-0.318,0.717-0.745l0.008-0.04c0.043-0.256,0.1-0.508,0.164-0.756l-5.121-0.531  c-0.627-0.067-0.754-0.327-0.734-0.601c0.021-0.274,0.183-0.513,0.812-0.493l5.619,0.012c1.424-3.109,4.414-5.35,7.959-5.714  l0.34-10.131c0.028-0.782,0.34-0.962,0.684-0.962c0.34,0,0.648,0.18,0.68,0.962l0.34,10.131c3.545,0.364,6.535,2.605,7.959,5.714  l5.617-0.012c0.631-0.021,0.793,0.219,0.812,0.493c0.018,0.274-0.107,0.534-0.734,0.601l-5.121,0.531  c0.064,0.248,0.119,0.5,0.164,0.756l0.008,0.04c0.08,0.427,0.322,0.709,0.717,0.745l33.186-1.119c0.763-0.072,1.66-0.555,2.16-1.432  l1.592-3.396c0.091-0.171,0.263-0.247,0.447-0.247c0.281,0,0.51,0.227,0.51,0.505c0,0.105-0.053,0.217-0.053,0.217l-1.311,2.81  c-1.062,2.23-1.752,3.161-7.018,3.785l-7.875,0.816c0.855,0.744,1.434,1.816,1.52,3.04c0.17,2.439-1.67,4.555-4.109,4.729  c-2.438,0.17-4.557-1.67-4.727-4.107c-0.078-1.119,0.266-2.167,0.895-2.995l-6.051,0.626c0.275,0.526,0.449,1.117,0.494,1.75  c0.17,2.438-1.67,4.555-4.109,4.728c-1.168,0.082-2.264-0.3-3.104-0.983c-0.086-0.063-0.195-0.084-0.303-0.043  c-0.111,0.047-0.186,0.155-0.189,0.271v5.521c0,0.896-1.342,0.896-1.342,0v-9.582c-0.004-0.375-0.494-0.704-1.004-0.667  l-0.055,0.006c-0.518,0.072-0.812,0.426-0.977,0.734C56.975,54.08,53.77,56.42,49.996,56.641z M42.964,44.614  c0.234-0.701,0.582-1.351,1.02-1.929l4.814,0.009c0.12,0,0.217,0.098,0.217,0.216v2.116c0,0.119-0.098,0.205-0.217,0.191  L42.964,44.614z M54.842,42.686c0.436,0.578,0.783,1.228,1.02,1.929l-5.834,0.604c-0.121,0.014-0.217-0.072-0.217-0.191v-2.116  c0-0.119,0.096-0.216,0.217-0.216L54.842,42.686z M46.689,50.928c0.107-1.525,1.43-2.675,2.955-2.569  c1.523,0.107,2.674,1.43,2.566,2.956c-0.105,1.525-1.428,2.674-2.953,2.568C47.732,53.775,46.582,52.453,46.689,50.928z   M36.71,58.887v2.881c0,0.648-0.525,1.172-1.172,1.172h-0.123c-0.646,0-1.172-0.521-1.172-1.172v-2.881  c0-0.648,0.524-1.174,1.172-1.174h0.123C36.186,57.713,36.71,58.238,36.71,58.887z M41.157,58.887v2.881  c0,0.648-0.525,1.172-1.172,1.172h-0.123c-0.646,0-1.172-0.521-1.172-1.172v-2.881c0-0.648,0.525-1.174,1.172-1.174h0.123  C40.63,57.713,41.157,58.238,41.157,58.887z M50.279,59.99c0-0.475,0.385-0.859,0.859-0.859h0.08c0.475,0,0.859,0.385,0.859,0.859  v2.09c0,0.475-0.387,0.859-0.859,0.859h-0.08c-0.475,0-0.859-0.385-0.859-0.859V59.99z M46.695,59.99  c0-0.475,0.385-0.859,0.859-0.859h0.08c0.475,0,0.859,0.385,0.859,0.859v2.09c0,0.475-0.386,0.859-0.859,0.859h-0.08  c-0.475,0-0.859-0.385-0.859-0.859V59.99z M57.67,58.887c0-0.648,0.523-1.174,1.172-1.174h0.123c0.646,0,1.172,0.525,1.172,1.174  v2.881c0,0.648-0.525,1.172-1.172,1.172h-0.123c-0.646,0-1.172-0.521-1.172-1.172V58.887z M62.115,58.887  c0-0.648,0.525-1.174,1.172-1.174h0.123c0.648,0,1.172,0.525,1.172,1.174v2.881c0,0.648-0.521,1.172-1.172,1.172h-0.123  c-0.646,0-1.172-0.521-1.172-1.172V58.887z"/><text x="0" y="115" fill="#000000" font-size="5px" font-weight="bold" font-family="'Helvetica Neue', Helvetica, Arial-Unicode, Arial, Sans-serif">Created by Simon Child</text><text x="0" y="120" fill="#000000" font-size="5px" font-weight="bold" font-family="'Helvetica Neue', Helvetica, Arial-Unicode, Arial, Sans-serif">from the Noun Project</text></svg>