<?xml version="1.0" encoding="UTF-8"?>
<svg width="88px" height="34px" viewBox="0 0 88 34" version="1.1" xmlns="http://www.w3.org/2000/svg" xmlns:xlink="http://www.w3.org/1999/xlink">
    <!-- Generator: Sketch 49.3 (51167) - http://www.bohemiancoding.com/sketch -->
    <title>flying-airplane</title>
    <desc>Created with Sketch.</desc>
    <defs></defs>
    <g id="Page-1" stroke="none" stroke-width="1" fill="none" fill-rule="evenodd">
        <g id="flying-airplane" fill="#000000" fill-rule="nonzero">
            <g id="Group">
                <path d="M83.43,17.08 C83.3343869,17.0388952 83.2539834,16.9689791 83.2,16.88 C82.39,15.75 80.33,13.19 73.63,13.19 L22.94,13.19 C22.7685597,13.1895319 22.6052302,13.116941 22.49,12.99 L11.12,0.66 C10.815985,0.331487574 10.3875847,0.146331496 9.94,0.15 L6.38,0.15 C6.07185647,0.142427167 5.77743942,0.277382472 5.58203964,0.5157702 C5.38663987,0.754157928 5.31209492,1.06933627 5.38,1.37 L8,12.63 C8.03490957,12.7950781 7.99988435,12.9672424 7.90325185,13.1055595 C7.80661935,13.2438766 7.65701198,13.3359904 7.49,13.36 C6.30382888,13.417707 5.15886223,13.8132409 4.19,14.5 C3.84678319,14.8170652 3.65111871,15.2627454 3.65,15.73 C3.67972758,16.1657505 3.84394615,16.581538 4.12,16.92 C4.27258097,17.1034251 4.30421641,17.3589705 4.2009706,17.5740659 C4.0977248,17.7891613 3.87855206,17.9243187 3.64,17.92 L1.38,17.92 C0.82771525,17.92 0.38,18.3677153 0.38,18.92 C0.38,19.4722847 0.82771525,19.92 1.38,19.92 L7.5,19.92 C7.60879246,19.917054 7.7162189,19.944777 7.81,20 C13.81,23.72 22.99,27.75 30.54,27.75 L38.82,27.83 C42.37,28.2 46.4,28.5 50.31,28.66 C50.477466,28.6674149 50.6345007,28.7434188 50.7442147,28.8701574 C50.8539287,28.996896 50.9066523,29.1631991 50.89,29.33 C50.8299032,30.0981788 51.3258603,30.8000841 52.07,31 L54.16,31.54 C54.3618532,31.5941888 54.5209637,31.749511 54.58,31.95 C54.683157,32.478252 55.066763,32.9078908 55.58,33.07 C57.5426649,33.5610114 59.556895,33.8161472 61.58,33.83 C63.0029774,33.8801847 64.4214074,33.642079 65.75,33.13 C65.9775219,33.0293593 66.1593593,32.8475219 66.26,32.62 C66.7430303,31.2898079 66.9240705,29.8688131 66.79,28.46 C66.7731687,28.2898278 66.8285391,28.1204047 66.9426182,27.9930163 C67.0566974,27.8656279 67.2190089,27.791973 67.39,27.79 L75.86,27.79 C80.58,27.79 87.11,26.17 87.11,21.71 C87.13,19.09 84.54,17.6 83.43,17.08 Z M8.43,2.15 L9.55,2.15 C9.71644627,2.15065061 9.87539805,2.21928887 9.99,2.34 L19,12.17 C19.1492334,12.3492531 19.1831863,12.5979129 19.0874716,12.8106122 C18.991757,13.0233115 18.7831322,13.1628113 18.55,13.17 L11.32,13.17 C11.04,13.17 10.64,13.17 10.15,13.17 L7.8,2.88 C7.76040771,2.70162879 7.80424922,2.5149368 7.91909953,2.37283387 C8.03394984,2.23073094 8.20729215,2.14870397 8.39,2.15 L8.43,2.15 Z M54.63,26.73 C46.6119874,26.6474069 38.6120173,25.952048 30.7,24.65 C30.6043931,24.6423669 30.5157845,24.5968984 30.4538314,24.5236811 C30.3918784,24.4504638 30.3617032,24.3555516 30.37,24.26 C30.3697512,24.0301137 30.5503624,23.8406923 30.78,23.83 C36.8135352,22.9323067 42.9005896,22.4411997 49,22.36 C60.13,22.36 61.88,24.87 62.1,25.36 C62.0830864,25.3944835 62.0592591,25.4251185 62.03,25.45 C61,26.37 57.09,26.75 54.59,26.73 L54.63,26.73 Z M53,28.7 L54.48,28.7 L54.48,29.55 L52.95,29.15 L53,28.7 Z M64.27,31.58 C62.02,32.17 58.46,31.68 56.98,31.38 C56.7090537,31.3211658 56.5118669,31.0870064 56.5,30.81 C56.5,30.57 56.5,30.26 56.5,29.81 L56.5,28.69 C58.5,28.59 61.5,28.25 63.06,27.17 C63.1800069,27.0793627 63.3309707,27.0398245 63.48,27.06 C63.79,27.06 64.05,27.13 64.27,27.17 C64.5124711,27.2179753 64.7020247,27.4075289 64.75,27.65 C64.9863083,28.7979652 64.9863083,29.9820348 64.75,31.13 C64.6883474,31.374305 64.4806258,31.554064 64.23,31.58 L64.27,31.58 Z M75.92,25.81 L66.19,25.81 C66.0874911,25.6876811 65.957195,25.5916735 65.81,25.53 C65.3745901,25.3761927 64.9260683,25.2623887 64.47,25.19 C64.2495993,25.1529275 64.0662092,25.0001024 63.99,24.79 C63.7633585,24.1463552 63.3488218,23.5855115 62.8,23.18 C60.09,20.93 52.28,18.87 30.51,21.85 C29.3101382,21.9894629 28.3968625,22.9923591 28.37,24.2 C28.3500657,24.7236194 28.5087489,25.2384583 28.82,25.66 C23.33,25.29 19.12,23.24 14.24,21.05 C13.9794783,20.9364166 13.8343842,20.6556349 13.8924458,20.3774235 C13.9505073,20.099212 14.1957945,19.8999012 14.48,19.9 L22.29,19.9 C22.8422847,19.9 23.29,19.4522847 23.29,18.9 C23.29,18.3477153 22.8422847,17.9 22.29,17.9 L8.36,17.9 C8.2431594,17.8960283 8.12939163,17.8615533 8.03,17.8 C7.44173829,17.4337456 6.88031712,17.0260469 6.35,16.58 C6.20043273,16.4281457 6.1426542,16.2083424 6.19821339,16.0025676 C6.25377259,15.7967928 6.41432834,15.6359398 6.62,15.58 C8.15981731,15.2983268 9.72562223,15.1843281 11.29,15.24 L73.63,15.24 C78.21,15.24 79.95,16.53 80.95,17.42 L80,17.42 C79.4477153,17.42 79,17.8677153 79,18.42 C79,18.9722847 79.4477153,19.42 80,19.42 L83.19,19.42 C83.2532103,19.4255818 83.3167897,19.4255818 83.38,19.42 C84.3260697,19.874172 84.9827064,20.7709501 85.13,21.81 C85.13,24.17 80.58,25.81 75.88,25.81 L75.92,25.81 Z" id="Shape"></path>
                <path d="M76.82,17.45 C76.5765386,17.349982 76.3034614,17.349982 76.06,17.45 C75.9338379,17.4955882 75.8206053,17.5710766 75.73,17.67 C75.5452558,17.8562606 75.4411046,18.1076601 75.44,18.37 C75.4384632,18.635803 75.5428135,18.8912812 75.73,19.08 C75.9187188,19.2671865 76.174197,19.3715368 76.44,19.37 C76.5700129,19.3715929 76.6990887,19.3478158 76.82,19.3 C76.9415321,19.2456428 77.053081,19.1712768 77.15,19.08 C77.3371865,18.8912812 77.4415368,18.635803 77.44,18.37 C77.4379849,17.9662981 77.1934255,17.6034036 76.82,17.45 Z" id="Shape"></path>
                <path d="M35.24,17.37 C34.6877153,17.37 34.24,17.8177153 34.24,18.37 C34.24,18.9222847 34.6877153,19.37 35.24,19.37 C35.7922847,19.37 36.24,18.9222847 36.24,18.37 C36.24,17.8177153 35.7922847,17.37 35.24,17.37 Z" id="Shape"></path>
                <path d="M31.12,17.37 C30.5677153,17.37 30.12,17.8177153 30.12,18.37 C30.12,18.9222847 30.5677153,19.37 31.12,19.37 C31.6722847,19.37 32.12,18.9222847 32.12,18.37 C32.12,17.8177153 31.6722847,17.37 31.12,17.37 Z" id="Shape"></path>
                <path d="M39.36,17.37 C38.8077153,17.37 38.36,17.8177153 38.36,18.37 C38.36,18.9222847 38.8077153,19.37 39.36,19.37 C39.9122847,19.37 40.36,18.9222847 40.36,18.37 C40.36,17.8177153 39.9122847,17.37 39.36,17.37 Z" id="Shape"></path>
                <path d="M60,17.37 C59.4477153,17.37 59,17.8177153 59,18.37 C59,18.9222847 59.4477153,19.37 60,19.37 C60.5522847,19.37 61,18.9222847 61,18.37 C61,17.8177153 60.5522847,17.37 60,17.37 Z" id="Shape"></path>
                <path d="M68.2,17.37 C67.6477153,17.37 67.2,17.8177153 67.2,18.37 C67.2,18.9222847 67.6477153,19.37 68.2,19.37 C68.7522847,19.37 69.2,18.9222847 69.2,18.37 C69.2,17.8177153 68.7522847,17.37 68.2,17.37 Z" id="Shape"></path>
                <path d="M72.32,17.37 C71.7677153,17.37 71.32,17.8177153 71.32,18.37 C71.32,18.9222847 71.7677153,19.37 72.32,19.37 C72.8722847,19.37 73.32,18.9222847 73.32,18.37 C73.32,17.8177153 72.8722847,17.37 72.32,17.37 Z" id="Shape"></path>
                <path d="M64.08,17.37 C63.5277153,17.37 63.08,17.8177153 63.08,18.37 C63.08,18.9222847 63.5277153,19.37 64.08,19.37 C64.6322847,19.37 65.08,18.9222847 65.08,18.37 C65.08,17.8177153 64.6322847,17.37 64.08,17.37 Z" id="Shape"></path>
                <path d="M55.84,17.37 C55.2877153,17.37 54.84,17.8177153 54.84,18.37 C54.84,18.9222847 55.2877153,19.37 55.84,19.37 C56.3922847,19.37 56.84,18.9222847 56.84,18.37 C56.84,17.8177153 56.3922847,17.37 55.84,17.37 Z" id="Shape"></path>
                <path d="M47.6,17.37 C47.0477153,17.37 46.6,17.8177153 46.6,18.37 C46.6,18.9222847 47.0477153,19.37 47.6,19.37 C48.1522847,19.37 48.6,18.9222847 48.6,18.37 C48.6,17.8177153 48.1522847,17.37 47.6,17.37 Z" id="Shape"></path>
                <path d="M51.72,17.37 C51.1677153,17.37 50.72,17.8177153 50.72,18.37 C50.72,18.9222847 51.1677153,19.37 51.72,19.37 C52.2722847,19.37 52.72,18.9222847 52.72,18.37 C52.72,17.8177153 52.2722847,17.37 51.72,17.37 Z" id="Shape"></path>
                <path d="M43.48,17.37 C42.9277153,17.37 42.48,17.8177153 42.48,18.37 C42.48,18.9222847 42.9277153,19.37 43.48,19.37 C44.0322847,19.37 44.48,18.9222847 44.48,18.37 C44.48,17.8177153 44.0322847,17.37 43.48,17.37 Z" id="Shape"></path>
                <path d="M26.29,17.67 C25.9006393,18.0621222 25.9028779,18.6956392 26.295,19.085 C26.6871222,19.4743607 27.3206392,19.4721221 27.71,19.08 C27.8971865,18.8912812 28.0015368,18.635803 28,18.37 C27.9988954,18.1076601 27.8947442,17.8562606 27.71,17.67 C27.5222334,17.4806873 27.2666375,17.3742017 27,17.3742017 C26.7333625,17.3742017 26.4777666,17.4806873 26.29,17.67 Z" id="Shape"></path>
            </g>
        </g>
    </g>
</svg>